<svg xmlns="http://www.w3.org/2000/svg" width="22" height="22" viewBox="0 0 22 22"><defs><style>.a{fill:#3c4c54;}</style></defs><path class="a" d="M235.066,230.676a4.433,4.433,0,0,1-3.145-1.292,4.369,4.369,0,0,1-1.3-3.122.586.586,0,0,0-1.172,0,4.369,4.369,0,0,1-1.3,3.122A4.433,4.433,0,0,1,225,230.676a.586.586,0,0,0,0,1.172,4.441,4.441,0,0,1,4.445,4.427.586.586,0,0,0,1.172,0,4.441,4.441,0,0,1,4.445-4.427.586.586,0,0,0,0-1.172Zm0,0" transform="translate(-215.652 -216.86)"/><path class="a" d="M8.017,145.548a3.122,3.122,0,0,1-3.13-3.107.586.586,0,0,0-1.172,0,3.122,3.122,0,0,1-3.13,3.107.586.586,0,0,0,0,1.172,3.127,3.127,0,0,1,3.13,3.116.586.586,0,0,0,1.172,0,3.127,3.127,0,0,1,3.13-3.116.586.586,0,0,0,0-1.172Zm0,0" transform="translate(0 -136.314)"/><path class="a" d="M215.223,4.049a2.3,2.3,0,0,1,2.3,2.284.586.586,0,0,0,1.172,0A2.3,2.3,0,0,1,221,4.042a.586.586,0,0,0,0-1.172A2.3,2.3,0,0,1,218.7.586a.586.586,0,0,0-1.172,0,2.3,2.3,0,0,1-2.3,2.291.586.586,0,0,0,0,1.172Zm0,0" transform="translate(-206.252)"/></svg>