<svg xmlns="http://www.w3.org/2000/svg" width="20.242" height="14.347" viewBox="0 0 20.242 14.347"><defs><style>.a{fill:#9c9c9c;}</style></defs><g transform="matrix(-0.017, -1, 1, -0.017, 0.809, 46.646)"><g transform="translate(32.304)"><path class="a" d="M46.278,11.087a.343.343,0,0,0-.308-.257H42.314V.417A.382.382,0,0,0,41.98,0H36.642a.382.382,0,0,0-.334.417V10.83h-3.67a.343.343,0,0,0-.308.257.5.5,0,0,0,.072.454l6.657,8.337a.29.29,0,0,0,.472,0l6.676-8.337A.494.494,0,0,0,46.278,11.087Z" transform="translate(-32.304)"/></g></g></svg>