<svg xmlns="http://www.w3.org/2000/svg" width="20" height="20" viewBox="0 0 20 20"><defs><style>.a{fill:#3c4c54;}</style></defs><g transform="translate(-15.136)"><path class="a" d="M34.558,16.843,27.681,10.4a1.9,1.9,0,0,0-.2-.165l1.218-1.2a2.363,2.363,0,0,0,.175-.184,4.764,4.764,0,0,0,4.814-.968A4.092,4.092,0,0,0,35,4.507a.37.37,0,0,0-.256-.313.411.411,0,0,0-.411.085l-2.2,2.065-2.232-.527L29.26,3.66l2.2-2.065a.35.35,0,0,0,.091-.385.389.389,0,0,0-.335-.24,4.706,4.706,0,0,0-3.6,1.228,4.063,4.063,0,0,0-1.033,4.509c-.066.053-.132.108-.2.168L24.6,8.489,21.307,5.4a1.193,1.193,0,0,0-.13-.1c.039-.064.076-.129.111-.2.7.125,1.966-1.143,3.046-2.155L21.189,0c-1.406,1.318-2.433,2.2-2.3,2.854a3.087,3.087,0,0,0-.812.518l-.443.415a1.717,1.717,0,0,0-.523.955c-.043.046-.087.094-.13.146l-.165.194s-.019.024-.023.029l-.15.2a4.4,4.4,0,0,0-.255.367l-.089.137-.014.023-.066.117a5,5,0,0,0-.235.448l-.012.026a4.684,4.684,0,0,0-.232.587l-.029.089c-.024.073-.049.146-.071.233l-.061.284a3.058,3.058,0,0,0-.074.507l-.009.1a2.368,2.368,0,0,0-.01.446c0,.045,0,.089.005.148,0,.025,0,.049,0,.072a1.351,1.351,0,0,0,.016.2l.038.23c.008.045.015.088.022.129a1.837,1.837,0,0,0,.059.282l.161.523a.376.376,0,0,0,.387.253.386.386,0,0,0,.24-.1.343.343,0,0,0,.106-.2l.083-.532a1.377,1.377,0,0,1,.046-.169c.014-.045.028-.092.039-.131l.059-.2a.533.533,0,0,1,.034-.08c.012-.025.024-.051.034-.076.02-.042.039-.084.057-.128A1.431,1.431,0,0,1,17,8.653c.023-.036.044-.072.066-.109a1.8,1.8,0,0,1,.169-.252l.012-.014.14-.181c.029-.034.061-.066.092-.1l.073-.076a2.711,2.711,0,0,1,.273-.254l.05-.042c.069-.06.15-.117.234-.177l.1-.072.125-.077a2.218,2.218,0,0,1,.218-.127l.166-.088.168-.077c.059-.028.116-.05.169-.07l.092-.036.085-.029c.036-.012.067-.024.109-.034l.045-.01a1.167,1.167,0,0,0,.177.211l3.257,3.052-6.952,6.258-.008.007a1.849,1.849,0,0,0-.141,2.809,2.064,2.064,0,0,0,2.917-.208l.01-.01L24.779,12.9c.036.04.072.08.112.117l6.877,6.445a2.068,2.068,0,0,0,2.791,0A1.769,1.769,0,0,0,34.558,16.843ZM17.738,18.29a.855.855,0,0,1-1.154,0,.731.731,0,0,1,0-1.081.856.856,0,0,1,1.154,0A.732.732,0,0,1,17.738,18.29Z"/></g></svg>