<svg xmlns="http://www.w3.org/2000/svg" width="33.843" height="28.544" viewBox="0 0 33.843 28.544"><defs><style>.a{fill:none;}.b{fill:#9c9c9c;}</style></defs><path class="a" d="M0,0H33.843V28.544H0Z"/><path class="b" d="M27.286,11.9A10.391,10.391,0,0,0,16.922,4,10.7,10.7,0,0,0,7.544,9.285,8.086,8.086,0,0,0,0,17.083c0,4.33,3.793,7.85,8.461,7.85H26.793a6.813,6.813,0,0,0,7.051-6.541A6.738,6.738,0,0,0,27.286,11.9Zm-7.544,3.873v5.233H14.1V15.775H9.871l7.051-6.541,7.051,6.541Z" transform="translate(0 -0.194)"/></svg>